<svg width="775" height="188" viewBox="0 0 775 188" fill="none" xmlns="http://www.w3.org/2000/svg">
<g clip-path="url(#clip0_698_2194)">
<g clip-path="url(#clip1_698_2194)">
<path d="M48.0475 37.923C48.0454 37.9285 48.0514 37.9334 48.0565 37.9305L92.0876 12.5345C92.0928 12.5315 92.0998 12.5242 92.0938 12.5238C91.6786 12.4923 79.5155 11.6662 63.7225 21.4037C59.1258 24.3608 50.5186 31.7496 48.0475 37.923Z" fill="#00C1FF" stroke="#00C1FF" stroke-width="3.7237"/>
<path d="M44.6326 48.6843C44.4996 48.7647 44.4315 48.8909 44.4152 49.0454L43.7226 55.6254C43.7118 55.7276 43.8048 55.8089 43.8926 55.7555C47.3483 53.6508 95.361 24.4489 102.779 22.1756C110.276 20.0689 116.351 16.6013 136.629 22.4576C136.685 22.4738 136.746 22.4496 136.774 22.3985C137.055 21.8833 137.358 21.3214 137.479 21.0971C137.51 21.0401 137.501 20.9759 137.446 20.9418C136.047 20.0727 117.932 9.25517 97.0693 18.0175C91.8708 20.1686 47.8975 46.7122 44.6326 48.6843Z" fill="#0051D8" stroke="#0051D8" stroke-width="3.7237"/>
<path d="M119.224 26.1454C119.219 26.1461 119.217 26.1538 119.222 26.1568L162.781 52.3551C162.786 52.3582 162.796 52.3608 162.793 52.3553C162.619 51.977 157.445 40.9383 141.272 31.8463C136.457 29.2596 125.822 25.3137 119.224 26.1454Z" fill="#00C1FF" stroke="#00C1FF" stroke-width="3.7237"/>
<path d="M108.157 28.3759C108.022 28.2986 107.879 28.3002 107.735 28.3609L101.645 30.9451C101.55 30.9853 101.524 31.106 101.613 31.1569C105.13 33.1589 153.947 60.9944 159.532 66.3802C165.009 71.9162 170.987 75.548 175.696 96.1225C175.709 96.1793 175.76 96.2217 175.818 96.2212C176.405 96.2169 177.043 96.2098 177.298 96.2068C177.363 96.2061 177.415 96.1676 177.418 96.1029C177.499 94.4573 178.178 73.3694 160.4 59.3705C155.999 55.8667 111.464 30.2754 108.157 28.3759Z" fill="#0051D8" stroke="#0051D8" stroke-width="3.7237"/>
<path d="M164.808 82.3352C164.804 82.3305 164.797 82.3333 164.797 82.3392L164.775 133.169C164.775 133.175 164.778 133.185 164.781 133.18C165.016 132.836 171.813 122.716 171.276 104.17C171.014 98.7103 168.919 87.5619 164.808 82.3352Z" fill="#00C1FF" stroke="#00C1FF" stroke-width="3.7237"/>
<path d="M157.194 73.997C157.191 73.8416 157.116 73.7196 156.99 73.6282L151.638 69.7384C151.555 69.678 151.438 69.7178 151.441 69.8206C151.535 73.8657 152.819 130.047 151.078 137.608C149.154 145.154 149.12 152.148 133.909 166.781C133.867 166.822 133.857 166.887 133.888 166.937C134.194 167.438 134.529 167.981 134.662 168.198C134.696 168.253 134.756 168.278 134.813 168.247C136.266 167.47 154.691 157.191 157.534 134.742C158.271 129.164 157.27 77.8106 157.194 73.997Z" fill="#0051D8" stroke="#0051D8" stroke-width="3.7237"/>
<path d="M139.388 150.223C139.39 150.218 139.384 150.213 139.379 150.216L95.348 175.612C95.3427 175.615 95.3357 175.622 95.3418 175.623C95.7569 175.654 107.92 176.48 123.713 166.743C128.31 163.786 136.917 156.397 139.388 150.223Z" fill="#00C1FF" stroke="#00C1FF" stroke-width="3.7237"/>
<path d="M142.803 139.462C142.936 139.382 143.004 139.256 143.02 139.101L143.713 132.521C143.724 132.419 143.631 132.338 143.543 132.391C140.087 134.496 92.0746 163.698 84.6566 165.971C77.1592 168.078 71.0847 171.545 50.8069 165.689C50.751 165.673 50.6891 165.697 50.6613 165.748C50.3807 166.263 50.0774 166.825 49.9564 167.049C49.9257 167.106 49.9341 167.171 49.9891 167.205C51.3889 168.074 69.5036 178.891 90.3663 170.129C95.5648 167.978 139.538 141.434 142.803 139.462Z" fill="#0051D8" stroke="#0051D8" stroke-width="3.7237"/>
<path d="M68.8801 162.272C68.886 162.271 68.8872 162.264 68.8821 162.261L24.873 136.827C24.8678 136.824 24.858 136.821 24.8606 136.827C25.041 137.202 30.4071 148.149 46.7365 156.957C51.5957 159.459 62.2982 163.219 68.8801 162.272Z" fill="#00C1FF" stroke="#00C1FF" stroke-width="3.7237"/>
<path d="M79.9074 159.849C80.0435 159.924 80.1868 159.92 80.3288 159.857L86.3735 157.166C86.4674 157.125 86.4914 157.004 86.4012 156.954C82.8506 155.014 33.5547 128.035 27.877 122.747C22.3039 117.308 16.2635 113.781 11.1964 93.2914C11.1824 93.2349 11.1305 93.1934 11.0723 93.1948C10.4859 93.2094 9.84764 93.2277 9.59288 93.2351C9.52817 93.2369 9.47676 93.2763 9.47469 93.341C9.42193 94.9879 9.11104 116.084 27.1308 129.771C31.593 133.197 76.567 158.008 79.9074 159.849Z" fill="#0051D8" stroke="#0051D8" stroke-width="3.7237"/>
<path d="M23.2089 106.429C23.2126 106.434 23.2198 106.431 23.2198 106.425L23.2418 55.5955C23.2418 55.5894 23.239 55.5797 23.2356 55.5847C23.0008 55.9285 16.2038 66.0491 16.7402 84.5949C17.0028 90.0543 19.0981 101.203 23.2089 106.429Z" fill="#00C1FF" stroke="#00C1FF" stroke-width="3.7237"/>
<path d="M30.8222 114.768C30.8253 114.923 30.9005 115.045 31.0262 115.136L36.3783 119.026C36.4615 119.087 36.5784 119.047 36.576 118.944C36.4811 114.899 35.1979 58.7178 36.9382 51.1571C38.8624 43.6108 38.8966 36.6163 54.1072 21.9834C54.1492 21.943 54.1592 21.8773 54.1288 21.8277C53.823 21.3271 53.488 20.7835 53.3543 20.5666C53.3203 20.5114 53.2605 20.4866 53.2034 20.5172C51.7508 21.2949 33.3252 31.5739 30.4823 54.0227C29.746 59.6003 30.7467 110.954 30.8222 114.768Z" fill="#0051D8" stroke="#0051D8" stroke-width="3.7237"/>
</g>
<g clip-path="url(#clip2_698_2194)">
<path d="M606.138 111.516C592.933 111.516 579.629 111.516 566.424 111.516C562.122 111.516 561.122 112.614 562.122 116.805C564.823 127.684 571.426 135.369 581.429 140.16C588.232 143.454 595.534 144.052 602.937 143.354C612.24 142.456 620.143 138.563 626.646 131.876C628.046 130.379 628.146 130.479 629.747 131.677C632.948 134.172 636.249 136.667 639.45 139.162C641.251 140.559 641.351 140.659 639.75 142.456C632.047 150.939 622.544 156.528 611.34 159.023C596.935 162.217 583.13 160.62 570.125 153.534C555.92 145.749 547.517 133.373 544.116 117.704C541.815 107.124 541.915 96.4451 545.817 86.265C553.919 65.4056 568.725 52.4309 591.333 49.8359C610.24 47.6402 626.045 54.2274 638.25 68.8988C644.452 76.3842 647.353 85.4665 648.453 95.0479C648.954 99.6389 649.054 104.33 648.954 109.021C648.954 111.616 648.854 111.616 646.253 111.616C638.55 111.616 630.747 111.616 623.044 111.616C617.442 111.616 611.74 111.616 606.138 111.516ZM596.035 96.8444C604.538 96.8444 613.041 96.8444 621.544 96.8444C623.544 96.8444 625.545 96.9442 627.546 96.8444C629.847 96.7445 630.847 95.4471 630.347 93.1516C628.946 86.4646 626.345 80.3764 621.244 75.7854C611.64 67.1023 600.336 64.3077 587.832 67.5015C574.827 70.7951 566.124 79.079 562.222 91.9539C561.122 95.5469 562.222 96.9442 565.924 96.9442C566.024 96.9442 566.124 96.9442 566.124 96.9442C576.227 96.7445 586.131 96.8444 596.035 96.8444Z" fill="#0051D8"/>
<path d="M416.071 98.84C416.071 130.878 399.165 152.735 373.755 158.823C355.649 163.115 338.643 160.32 323.637 148.743C313.334 140.758 307.432 130.079 304.03 117.703C298.028 96.1453 309.032 68.1997 331.74 56.4226C340.543 51.8316 349.747 49.2366 359.55 49.5361C372.555 49.8355 384.859 53.2289 395.063 61.6125C408.568 72.5911 415.871 86.8633 416.071 98.84ZM359.15 143.553C380.458 143.553 397.864 126.187 397.864 105.028C397.864 83.8692 380.758 66.2036 360.151 66.4032C336.142 66.6028 320.736 85.2665 320.736 104.729C320.736 124.889 336.942 143.353 359.15 143.553Z" fill="#0051D8"/>
<path d="M525.809 122.195C525.809 132.874 525.809 143.653 525.809 154.332C525.809 155.031 525.809 155.63 525.809 156.328C525.809 157.526 525.209 157.925 524.109 157.925C519.507 157.925 514.905 157.825 510.404 157.825C509.203 157.825 508.503 157.426 508.703 156.029C508.803 155.33 508.703 154.731 508.703 154.033C508.703 134.571 508.703 115.108 508.703 95.6464C508.703 92.253 508.403 88.8596 507.403 85.566C504.902 77.3819 499.7 71.693 491.697 68.6988C481.594 64.9062 471.99 66.1039 463.087 72.0922C456.084 76.8829 452.583 83.5699 452.083 91.7539C451.683 98.0417 451.783 104.429 451.783 110.717C451.783 125.388 451.783 139.96 451.783 154.631C451.783 158.125 451.883 157.925 448.482 157.925C444.48 157.925 440.479 157.925 436.477 158.025C433.976 158.025 433.976 158.025 433.976 155.53C433.976 145.649 434.176 135.768 433.976 125.887C433.776 114.609 433.976 103.232 434.577 91.9535C434.677 88.9594 434.777 85.9652 435.377 83.0708C436.877 75.6852 440.379 69.1979 445.581 63.7086C450.682 58.3191 456.985 54.9257 463.987 52.5303C473.791 49.1369 483.694 48.5381 493.798 50.8336C509.804 54.5265 519.607 64.507 524.009 80.0767C525.209 84.2685 525.709 88.5602 525.709 92.8518C525.709 102.633 525.709 112.513 525.709 122.294C525.709 122.195 525.709 122.195 525.809 122.195Z" fill="#0051D8"/>
<path d="M262.916 70.8948C262.916 53.7282 262.916 36.4618 262.916 19.2953C262.916 16.9997 262.916 16.9997 265.217 16.9997C270.118 17.0995 275.02 17.0995 279.922 16.9997C282.423 16.8999 282.523 16.9997 282.523 19.4949C282.523 36.5616 282.423 53.6284 282.423 70.5953C282.423 84.5681 282.523 98.5409 282.523 112.514C282.523 118.003 282.423 123.492 281.622 128.882C278.921 145.25 269.918 157.027 255.513 164.912C247.71 169.203 239.307 170.8 230.504 170.9C227.003 170.9 223.502 170.9 220 170.9C218.2 170.9 218.1 170.9 218.1 169.203C218.1 164.313 218.1 159.422 218.1 154.532C218.1 152.835 218.2 152.835 220 152.835C223.201 152.835 226.303 152.835 229.504 152.835C237.507 152.835 244.809 150.839 251.111 145.649C257.214 140.659 260.515 134.171 262.015 126.586C262.816 122.394 262.916 118.203 262.916 113.911C262.916 99.539 262.816 85.2668 262.916 70.8948Z" fill="#00C1FF"/>
<path d="M682.166 49.835C682.367 50.0346 682.667 50.1344 682.967 50.334C683.367 50.7332 683.767 51.1324 684.167 51.5317C700.973 68.299 717.779 85.0663 734.485 101.834C736.686 104.029 736.686 104.029 734.585 106.125C716.879 123.791 699.073 141.456 681.366 159.122C681.066 159.421 680.766 159.721 680.466 160.02C679.766 160.819 679.065 160.819 678.365 160.02C674.664 156.328 670.962 152.635 667.261 148.942C666.661 148.343 666.561 147.644 667.161 147.046C667.661 146.547 668.061 146.147 668.562 145.648C680.966 133.272 693.471 120.797 705.875 108.421C706.475 107.822 707.075 107.223 707.576 106.624C709.076 104.828 709.076 103.031 707.476 101.235C707.075 100.736 706.575 100.337 706.075 99.8376C694.571 88.3599 683.067 76.8823 671.663 65.4046C671.263 65.0054 670.962 64.706 670.562 64.3068C668.862 62.5103 668.862 62.5103 670.562 60.8136C673.863 57.52 677.165 54.2264 680.466 50.9328C680.866 50.5336 681.266 49.9348 682.166 49.835Z" fill="#00C1FF"/>
<path d="M774.999 64.0076C774.899 64.7063 774.599 65.0057 774.199 65.4049C769.997 69.5967 765.796 73.6888 761.694 77.8806C760.894 78.679 760.194 78.679 759.394 77.8806C755.192 73.6888 751.091 69.4969 746.889 65.4049C745.989 64.5067 746.089 63.808 746.989 62.9098C751.091 58.8177 755.192 54.7257 759.293 50.6337C760.094 49.8352 760.794 49.6356 761.594 50.4341C765.796 54.6259 770.097 58.9175 774.299 63.1094C774.599 63.4088 774.799 63.808 774.999 64.0076Z" fill="#00C1FF"/>
<path d="M775 146.347C774.9 146.846 774.499 147.246 774.199 147.545C770.098 151.637 765.996 155.729 761.895 159.921C760.995 160.819 760.294 160.819 759.394 159.921C755.293 155.829 751.191 151.637 747.09 147.645C746.189 146.747 746.089 146.048 746.99 145.15C751.191 141.058 755.393 136.866 759.494 132.674C760.294 131.876 760.995 131.876 761.795 132.674C765.996 136.866 770.098 141.058 774.299 145.15C774.599 145.449 774.9 145.749 775 146.347Z" fill="#00C1FF"/>
</g>
</g>
<defs>
<clipPath id="clip0_698_2194">
<rect width="774.812" height="188" fill="white"/>
</clipPath>
<clipPath id="clip1_698_2194">
<rect width="188" height="188" fill="white"/>
</clipPath>
<clipPath id="clip2_698_2194">
<rect width="557" height="154" fill="white" transform="translate(218 17)"/>
</clipPath>
</defs>
</svg>
