<svg width="1133" height="188" viewBox="0 0 1133 188" fill="none" xmlns="http://www.w3.org/2000/svg">
<g clip-path="url(#clip0_700_519)">
<path d="M48.0358 37.9113C48.0336 37.9168 48.0397 37.9217 48.0448 37.9187L92.0758 12.5228C92.0811 12.5198 92.0881 12.5125 92.0821 12.512C91.6669 12.4806 79.5037 11.6544 63.7108 21.392C59.1141 24.3491 50.5069 31.7379 48.0358 37.9113Z" fill="white" stroke="white" stroke-width="3.7237"/>
<path d="M44.6209 48.6726C44.4878 48.753 44.4198 48.8791 44.4035 49.0337L43.7109 55.6137C43.7001 55.7159 43.7931 55.7972 43.8809 55.7438C47.3366 53.639 95.3493 24.4372 102.767 22.1639C110.265 20.0572 116.339 16.5895 136.617 22.4459C136.673 22.4621 136.735 22.4379 136.763 22.3867C137.043 21.8716 137.346 21.3097 137.467 21.0854C137.498 21.0284 137.49 20.9642 137.435 20.9301C136.035 20.061 117.92 9.24345 97.0575 18.0058C91.8591 20.1569 47.8858 46.7004 44.6209 48.6726Z" fill="white" stroke="white" stroke-width="3.7237"/>
<path d="M119.213 26.1337C119.207 26.1344 119.206 26.1421 119.211 26.1451L162.769 52.3434C162.774 52.3465 162.784 52.3491 162.782 52.3436C162.608 51.9652 157.433 40.9266 141.26 31.8346C136.445 29.2478 125.81 25.302 119.213 26.1337Z" fill="white" stroke="white" stroke-width="3.7237"/>
<path d="M108.145 28.3642C108.01 28.2868 107.867 28.2884 107.724 28.3491L101.633 30.9334C101.538 30.9735 101.512 31.0943 101.602 31.1452C105.118 33.1472 153.935 60.9827 159.52 66.3685C164.997 71.9045 170.975 75.5363 175.684 96.1108C175.697 96.1676 175.748 96.2099 175.806 96.2095C176.393 96.2052 177.031 96.1981 177.286 96.1951C177.351 96.1944 177.403 96.1559 177.406 96.0912C177.488 94.4456 178.167 73.3577 160.389 59.3588C155.987 55.855 111.453 30.2637 108.145 28.3642Z" fill="white" stroke="white" stroke-width="3.7237"/>
<path d="M164.796 82.3234C164.792 82.3188 164.785 82.3216 164.785 82.3275L164.763 133.157C164.763 133.164 164.766 133.173 164.769 133.168C165.004 132.824 171.801 122.704 171.265 104.158C171.002 98.6986 168.907 87.5502 164.796 82.3234Z" fill="white" stroke="white" stroke-width="3.7237"/>
<path d="M157.183 73.9853C157.18 73.8299 157.104 73.7079 156.979 73.6165L151.627 69.7267C151.543 69.6662 151.426 69.7061 151.429 69.8089C151.524 73.8539 152.807 130.035 151.067 137.596C149.142 145.142 149.108 152.137 133.898 166.77C133.856 166.81 133.846 166.876 133.876 166.925C134.182 167.426 134.517 167.969 134.651 168.186C134.685 168.241 134.744 168.266 134.801 168.236C136.254 167.458 154.68 157.179 157.523 134.73C158.259 129.153 157.258 77.7989 157.183 73.9853Z" fill="white" stroke="white" stroke-width="3.7237"/>
<path d="M139.376 150.212C139.378 150.206 139.372 150.201 139.367 150.204L95.3363 175.6C95.331 175.603 95.324 175.611 95.33 175.611C95.7452 175.642 107.908 176.469 123.701 166.731C128.298 163.774 136.905 156.385 139.376 150.212Z" fill="white" stroke="white" stroke-width="3.7237"/>
<path d="M142.791 139.45C142.924 139.37 142.992 139.244 143.009 139.089L143.701 132.509C143.712 132.407 143.619 132.326 143.531 132.379C140.076 134.484 92.0628 163.686 84.6449 165.959C77.1475 168.066 71.073 171.533 50.7952 165.677C50.7393 165.661 50.6774 165.685 50.6496 165.736C50.369 166.251 50.0657 166.813 49.9447 167.038C49.914 167.095 49.9224 167.159 49.9774 167.193C51.3772 168.062 69.4918 178.88 90.3546 170.117C95.5531 167.966 139.526 141.423 142.791 139.45Z" fill="white" stroke="white" stroke-width="3.7237"/>
<path d="M68.8684 162.26C68.8742 162.26 68.8755 162.252 68.8704 162.249L24.8613 136.815C24.856 136.812 24.8462 136.809 24.8489 136.815C25.0292 137.19 30.3953 148.137 46.7248 156.945C51.584 159.447 62.2865 163.207 68.8684 162.26Z" fill="white" stroke="white" stroke-width="3.7237"/>
<path d="M79.8957 159.837C80.0318 159.912 80.1751 159.908 80.317 159.845L86.3618 157.155C86.4557 157.113 86.4797 156.992 86.3895 156.942C82.8389 155.002 33.5429 128.023 27.8653 122.735C22.2922 117.296 16.2518 113.769 11.1847 93.2797C11.1707 93.2231 11.1188 93.1817 11.0606 93.1831C10.4742 93.1977 9.83592 93.2159 9.58116 93.2233C9.51645 93.2252 9.46504 93.2646 9.46297 93.3293C9.41021 94.9761 9.09932 116.073 27.1191 129.759C31.5812 133.186 76.5553 157.996 79.8957 159.837Z" fill="white" stroke="white" stroke-width="3.7237"/>
<path d="M23.1972 106.418C23.2009 106.422 23.2081 106.42 23.2081 106.414L23.2301 55.5837C23.2301 55.5777 23.2273 55.568 23.2239 55.573C22.9891 55.9168 16.192 66.0373 16.7285 84.5832C16.9911 90.0426 19.0864 101.191 23.1972 106.418Z" fill="white" stroke="white" stroke-width="3.7237"/>
<path d="M30.8105 114.756C30.8136 114.911 30.8888 115.033 31.0145 115.125L36.3666 119.015C36.4498 119.075 36.5667 119.035 36.5643 118.932C36.4694 114.887 35.1862 58.7061 36.9264 51.1454C38.8507 43.5991 38.8849 36.6045 54.0955 21.9717C54.1375 21.9313 54.1475 21.8656 54.1171 21.8159C53.8113 21.3154 53.4763 20.7718 53.3425 20.5548C53.3086 20.4997 53.2487 20.4749 53.1917 20.5055C51.7391 21.2832 33.3135 31.5622 30.4706 54.011C29.7342 59.5886 30.735 110.942 30.8105 114.756Z" fill="white" stroke="white" stroke-width="3.7237"/>
</g>
<path fill-rule="evenodd" clip-rule="evenodd" d="M230.667 97.6189C234.834 85.293 237.667 66.1301 238.334 52.1345L226.167 50.4682C225.167 63.964 222 82.2912 218 93.2873L230.667 97.6189ZM279.501 75.9597C277.667 68.1288 272.501 55.1334 267.502 45.3037L256.834 49.516V17.8672H242.133V169.896H256.834V50.6463C261.334 60.8096 266.333 73.4606 268.167 81.2916L279.501 75.9597ZM294.716 64.7754H346.733V91.9032C346.733 91.9032 342.493 91.9541 336.72 91.9541C321.825 91.9541 294.717 91.9032 294.717 91.9032V64.7754H294.716ZM345.602 155.202C342.436 155.202 342.169 154.433 342.169 150.102L342.21 105.467H362.565V51.2117L343.836 51.3016C348.67 42.9708 353.67 32.6431 358.17 22.8111L341.643 17.3018C338.477 27.465 332.834 41.8044 327.501 51.3016H303.834L315.001 46.9694C312.335 39.1385 305.668 27.4758 299.501 18.9816L286.001 23.813C291.501 32.31 297.501 43.8065 300.001 51.3039L280.015 51.214V105.47H298.674C296.687 131.451 296.493 146.54 267.842 156.244L267.256 156.44L271.733 170.698L272.275 170.5C305.311 158.302 311.854 137.12 314.505 105.47H327.509V150.117C327.509 164.612 330.34 168.767 343.341 168.767H367.653L371.611 155.203H345.602V155.202Z" fill="white"/>
<path d="M526.242 17.5195L534.573 29.6963C510.746 36.0349 474.589 39.5378 444.597 41.039C444.097 37.5361 442.431 32.1984 440.765 28.8623C470.424 27.0274 505.748 23.0241 526.242 17.5195ZM519.744 65.7262L508.414 61.8897C512.079 55.0507 517.078 44.0415 519.411 36.3685L532.407 40.205C528.408 49.3793 523.743 59.054 519.744 65.7262ZM499.416 58.22L486.086 63.2241C485.086 57.7195 481.254 48.7121 477.422 42.2067L490.085 37.8697C493.917 44.2083 497.916 52.8822 499.416 58.22ZM467.591 61.0556L454.428 66.2266C453.095 61.0556 449.263 52.5486 445.264 46.21L457.76 41.8731C461.759 47.7112 465.925 55.7179 467.591 61.0556ZM437.099 37.0357L427.602 49.2125C421.603 43.7079 409.607 35.7013 400.276 30.6971L409.607 19.688C418.604 24.5253 430.934 31.8648 437.099 37.0357ZM429.934 78.9038L420.604 91.4141C414.605 86.0764 401.609 78.2365 391.611 73.3992L400.442 62.2233C410.106 66.5602 423.27 73.7328 429.934 78.9038ZM420.27 104.592L432.267 113.432C425.769 130.613 417.105 150.296 409.273 165.642L395.61 156.635C402.775 143.958 412.772 123.107 420.27 104.592ZM543.571 137.953H503.915C512.579 148.295 527.075 154.633 546.403 157.135C543.238 159.971 539.405 165.809 537.406 169.646C514.245 165.309 498.416 155.134 489.252 138.453C481.921 153.966 467.424 164.308 437.099 170.48C435.933 166.81 432.267 161.139 429.435 158.303C452.928 153.966 465.425 147.461 472.256 137.953H434.933V125.276H477.922C478.921 121.939 479.588 118.27 480.254 114.266C453.595 116.602 448.763 117.436 445.097 118.937C444.597 116.268 442.764 109.763 441.265 106.26C445.43 105.759 450.429 103.424 456.927 99.5876C459.427 98.42 463.592 96.0847 468.757 92.9154C455.094 93.5826 451.595 94.2498 449.429 94.917C448.596 92.0814 446.597 85.7428 445.097 82.2399C447.93 81.9063 450.762 80.405 454.095 78.2366C457.594 76.2349 468.757 68.0614 476.422 59.054L488.419 65.893C482.587 71.3975 475.922 76.7353 469.091 81.239L486.253 80.9054C492.584 76.4017 498.916 71.3975 504.415 66.3934L514.579 75.2341C501.582 85.576 487.586 95.0838 473.423 102.924L515.912 99.7544C512.746 95.9179 509.58 92.2482 506.414 88.9121L517.411 82.9071C526.242 91.7478 536.073 103.925 540.405 112.432L528.575 119.104C527.408 116.435 525.742 113.599 523.743 110.263L495.917 112.932C495.25 117.269 494.584 121.439 493.584 125.276H543.571V137.953Z" fill="white"/>
<g clip-path="url(#clip1_700_519)">
<path d="M964.139 111.516C950.934 111.516 937.629 111.516 924.424 111.516C920.123 111.516 919.122 112.614 920.123 116.805C922.824 127.684 929.426 135.369 939.43 140.16C946.232 143.454 953.535 144.052 960.937 143.354C970.241 142.455 978.144 138.563 984.646 131.876C986.047 130.379 986.147 130.479 987.747 131.676C990.948 134.172 994.249 136.667 997.451 139.162C999.251 140.559 999.351 140.659 997.751 142.455C990.048 150.939 980.545 156.528 969.341 159.023C954.935 162.217 941.13 160.62 928.126 153.534C913.921 145.749 905.518 133.373 902.116 117.704C899.816 107.124 899.916 96.4451 903.817 86.265C911.92 65.4056 926.725 52.4309 949.333 49.8359C968.24 47.6402 984.046 54.2274 996.25 68.8988C1002.45 76.3842 1005.35 85.4665 1006.45 95.0478C1006.95 99.6389 1007.05 104.33 1006.95 109.021C1006.95 111.616 1006.85 111.616 1004.25 111.616C996.55 111.616 988.747 111.616 981.045 111.616C975.443 111.616 969.741 111.616 964.139 111.516ZM954.035 96.8444C962.538 96.8444 971.041 96.8444 979.544 96.8444C981.545 96.8444 983.546 96.9442 985.546 96.8444C987.847 96.7445 988.848 95.4471 988.347 93.1515C986.947 86.4646 984.346 80.3764 979.244 75.7854C969.641 67.1023 958.337 64.3077 945.832 67.5015C932.827 70.7951 924.124 79.079 920.223 91.9539C919.123 95.5469 920.223 96.9442 923.924 96.9442C924.024 96.9442 924.124 96.9442 924.124 96.9442C934.228 96.7445 944.131 96.8444 954.035 96.8444Z" fill="white"/>
<path d="M774.071 98.84C774.071 130.878 757.165 152.735 731.755 158.823C713.649 163.115 696.643 160.32 681.637 148.743C671.334 140.758 665.432 130.079 662.03 117.703C656.028 96.1453 667.032 68.1997 689.74 56.4226C698.543 51.8316 707.747 49.2366 717.55 49.5361C730.555 49.8355 742.859 53.2289 753.063 61.6125C766.568 72.5911 773.871 86.8633 774.071 98.84ZM717.15 143.553C738.458 143.553 755.864 126.187 755.864 105.028C755.864 83.8692 738.758 66.2036 718.151 66.4032C694.142 66.6028 678.736 85.2665 678.736 104.729C678.736 124.889 694.942 143.353 717.15 143.553Z" fill="white"/>
<path d="M883.81 122.195C883.81 132.874 883.81 143.653 883.81 154.332C883.81 155.031 883.81 155.63 883.81 156.328C883.81 157.526 883.21 157.925 882.109 157.925C877.508 157.925 872.906 157.825 868.404 157.825C867.204 157.825 866.504 157.426 866.704 156.029C866.804 155.33 866.704 154.731 866.704 154.033C866.704 134.571 866.704 115.108 866.704 95.6464C866.704 92.253 866.404 88.8596 865.403 85.566C862.902 77.3819 857.7 71.693 849.698 68.6988C839.594 64.9062 829.991 66.1039 821.087 72.0922C814.085 76.8829 810.584 83.5699 810.083 91.7539C809.683 98.0417 809.783 104.429 809.783 110.717C809.783 125.388 809.783 139.96 809.783 154.631C809.783 158.125 809.883 157.925 806.482 157.925C802.481 157.925 798.479 157.925 794.478 158.025C791.977 158.025 791.977 158.025 791.977 155.53C791.977 145.649 792.177 135.768 791.977 125.887C791.777 114.609 791.977 103.232 792.577 91.9535C792.677 88.9594 792.777 85.9652 793.377 83.0708C794.878 75.6852 798.379 69.1979 803.581 63.7086C808.683 58.3191 814.985 54.9257 821.988 52.5303C831.791 49.1369 841.695 48.5381 851.798 50.8336C867.804 54.5265 877.608 64.507 882.009 80.0767C883.21 84.2685 883.71 88.5602 883.71 92.8518C883.71 102.633 883.71 112.513 883.71 122.294C883.71 122.195 883.71 122.195 883.81 122.195Z" fill="white"/>
<path d="M620.916 70.8948C620.916 53.7282 620.916 36.4618 620.916 19.2953C620.916 16.9997 620.916 16.9997 623.217 16.9997C628.118 17.0995 633.02 17.0995 637.922 16.9997C640.423 16.8999 640.523 16.9997 640.523 19.4949C640.523 36.5616 640.423 53.6284 640.423 70.5953C640.423 84.5681 640.523 98.5409 640.523 112.514C640.523 118.003 640.423 123.492 639.622 128.882C636.921 145.25 627.918 157.027 613.513 164.912C605.71 169.203 597.307 170.8 588.504 170.9C585.003 170.9 581.502 170.9 578 170.9C576.2 170.9 576.1 170.9 576.1 169.203C576.1 164.313 576.1 159.422 576.1 154.532C576.1 152.835 576.2 152.835 578 152.835C581.201 152.835 584.303 152.835 587.504 152.835C595.507 152.835 602.809 150.839 609.111 145.649C615.214 140.659 618.515 134.171 620.015 126.586C620.816 122.394 620.916 118.203 620.916 113.911C620.916 99.539 620.816 85.2668 620.916 70.8948Z" fill="white"/>
<path d="M1040.17 49.8359C1040.37 50.0355 1040.67 50.1354 1040.97 50.335C1041.37 50.7342 1041.77 51.1334 1042.17 51.5326C1058.97 68.3 1075.78 85.0673 1092.49 101.835C1094.69 104.03 1094.69 104.03 1092.59 106.126C1074.88 123.792 1057.07 141.457 1039.37 159.123C1039.07 159.422 1038.77 159.722 1038.47 160.021C1037.77 160.82 1037.07 160.82 1036.37 160.021C1032.66 156.328 1028.96 152.636 1025.26 148.943C1024.66 148.344 1024.56 147.645 1025.16 147.047C1025.66 146.548 1026.06 146.148 1026.56 145.649C1038.97 133.273 1051.47 120.798 1063.87 108.422C1064.48 107.823 1065.08 107.224 1065.58 106.625C1067.08 104.829 1067.08 103.032 1065.48 101.236C1065.08 100.737 1064.58 100.338 1064.08 99.8385C1052.57 88.3609 1041.07 76.8832 1029.66 65.4056C1029.26 65.0064 1028.96 64.707 1028.56 64.3077C1026.86 62.5112 1026.86 62.5112 1028.56 60.8146C1031.86 57.521 1035.16 54.2274 1038.47 50.9338C1038.87 50.5346 1039.27 49.9357 1040.17 49.8359Z" fill="white"/>
<path d="M1133 64.0076C1132.9 64.7063 1132.6 65.0057 1132.2 65.4049C1128 69.5967 1123.8 73.6888 1119.69 77.8806C1118.89 78.679 1118.19 78.679 1117.39 77.8806C1113.19 73.6888 1109.09 69.4969 1104.89 65.4049C1103.99 64.5067 1104.09 63.808 1104.99 62.9098C1109.09 58.8177 1113.19 54.7257 1117.29 50.6337C1118.09 49.8352 1118.79 49.6356 1119.59 50.4341C1123.8 54.6259 1128.1 58.9175 1132.3 63.1094C1132.6 63.4088 1132.8 63.808 1133 64.0076Z" fill="white"/>
<path d="M1133 146.347C1132.9 146.846 1132.5 147.246 1132.2 147.545C1128.1 151.637 1124 155.729 1119.9 159.921C1119 160.819 1118.29 160.819 1117.39 159.921C1113.29 155.829 1109.19 151.637 1105.09 147.645C1104.19 146.747 1104.09 146.048 1104.99 145.15C1109.19 141.058 1113.39 136.866 1117.49 132.674C1118.29 131.876 1119 131.876 1119.8 132.674C1124 136.866 1128.1 141.058 1132.3 145.15C1132.6 145.449 1132.9 145.749 1133 146.347Z" fill="white"/>
</g>
<defs>
<clipPath id="clip0_700_519">
<rect width="188" height="188" fill="white"/>
</clipPath>
<clipPath id="clip1_700_519">
<rect width="557" height="154" fill="white" transform="translate(576 17)"/>
</clipPath>
</defs>
</svg>
